<?xml version="1.0" encoding="utf-8"?>
<!-- Generator: Adobe Illustrator 16.0.0, SVG Export Plug-In . SVG Version: 6.00 Build 0)  -->
<!DOCTYPE svg PUBLIC "-//W3C//DTD SVG 1.1//EN" "http://www.w3.org/Graphics/SVG/1.1/DTD/svg11.dtd">
<svg version="1.1" xmlns="http://www.w3.org/2000/svg" xmlns:xlink="http://www.w3.org/1999/xlink" x="0px" y="0px" class='svg-ear'
	 width="75.89px" height="124.962px" viewBox="11.51 -25.667 75.89 124.962" enable-background="new 11.51 -25.667 75.89 124.962"
	 xml:space="preserve">
<g>
	<path d="M11.51,39.673c0-11.053,2.865-22.298,7.865-30.048C23.75,4.375,46.5-25.667,50.238-25.667
		c5.012,0,27.343,33.794,31.803,46.009c3.602,9.864-0.413,17.868-4.296,25.609c-0.515,1.027-1.033,2.06-1.535,3.102
		c-4.063,8.441-1.883,11.076,2.894,16.848c1.687,2.035,3.598,4.346,5.428,7.219c3.891,6.109,3.115,11.036,1.779,14.097
		c-2.883,6.604-10.75,10.204-17.15,11.369c-2.582,0.472-5.182,0.71-7.725,0.71C32.014,99.295,11.51,67.873,11.51,39.673z M25.5,14
		c-4.887,5.643-7.104,16.3-7.104,25.674c0,24.893,18.406,52.736,43.039,52.736c2.131,0,4.314-0.202,6.49-0.598
		c5.852-1.066,10.59-3.953,12.075-7.353c0.983-2.25,0.565-4.75-1.276-7.642c-1.602-2.51-3.291-4.553-4.926-6.527
		c-5.025-6.072-9.771-11.807-3.793-24.225c0.518-1.075,1.053-2.14,1.586-3.202c3.521-7.023,6.564-13.087,3.981-20.159
		C71.643,11.94,60.277-5.167,50.5-5.167C39.842-5.167,31.014,7.631,25.5,14z"/>
</g>
<path d="M56.732,80.193c-19.907,1.222-31.743-22.279-30.805-39.566c0.506-9.353,4.633-19.222,14.102-22.604
	c8.739-3.123,20.473-2.443,24.6,7.517c4.262,10.284-4.14,8.821-9.637,4.106c-7.13-6.116-15.1-2.094-19.109,5.371
	C26.79,51.947,40.135,74.066,56.732,80.193L56.732,80.193z"/>
<path d="M60.523,65.818c1.134,0.896,2.136,2.445,2.685,3.632c-5.657,1.841-5.954-2.618-8.843-5.685
	c-3.693-3.918-10.699-6.348-11.689-12.317c-1.186-7.15,8.139-13.573,13.424-7.428C60.252,48.851,56.383,59.373,60.523,65.818
	L60.523,65.818z"/>
</svg>
